<svg width="1792" height="213" viewBox="0 0 1792 213" fill="none" xmlns="http://www.w3.org/2000/svg">
<g clip-path="url(#clip0_40_50)">
<path d="M70.4232 7.33544H118.094L187.705 209.74H147.618L133.262 166.27H55.2551L40.6288 209.74H0.812576L70.4232 7.33544ZM122.699 133.668L94.2588 48.3597L65.8186 133.668H122.699ZM207.184 61.9439H240.5V82.5918C244.111 74.6225 249.257 68.9171 255.939 65.4758C262.619 62.0344 270.745 60.3138 280.316 60.3138H288.983V91.8291H276.253C266.14 91.8291 258.014 94.9988 251.876 101.338C245.736 107.677 242.666 116.371 242.666 127.42V209.74H207.184V61.9439ZM379.631 211.37C363.019 211.37 350.107 206.841 340.898 197.786C331.87 188.548 327.355 175.598 327.355 158.935V93.7309H301.895V61.9439H304.603C311.826 61.9439 317.424 60.0421 321.396 56.2385C325.369 52.435 327.355 46.9108 327.355 39.6658V28.2551H362.838V61.9439H396.695V93.7309H362.838V157.033C362.838 172.429 371.144 180.126 387.757 180.126C390.646 180.126 393.807 179.855 397.237 179.311V210.012C391.459 210.917 385.59 211.37 379.631 211.37ZM424.346 4.07525H459.829V76.6148C463.982 70.8189 469.49 66.3813 476.351 63.3023C483.213 60.2233 490.888 58.6837 499.374 58.6837C510.028 58.6837 519.599 61.0383 528.085 65.7475C536.572 70.4566 543.163 77.0676 547.858 85.5804C552.552 94.0931 554.9 103.783 554.9 114.651V209.74H519.418V123.073C519.418 113.474 516.619 105.775 511.021 99.9796C505.604 94.1837 498.472 91.2857 489.623 91.2857C480.956 91.2857 473.824 94.1837 468.226 99.9796C462.627 105.775 459.829 113.474 459.829 123.073V209.74H424.346V4.07525ZM637.45 213C620.296 213 606.753 207.476 596.822 196.427C586.891 185.378 581.924 170.708 581.924 152.415V61.9439H617.407V149.426C617.407 158.663 620.115 166.18 625.533 171.976C631.131 177.591 638.354 180.398 647.201 180.398C656.05 180.398 663.182 177.5 668.599 171.704C674.197 165.909 676.996 158.21 676.996 148.611V61.9439H712.478V209.74H678.892V192.08C674.92 198.963 669.322 204.216 662.098 207.838C655.056 211.28 646.84 213 637.45 213ZM745.462 61.9439H778.778V82.5918C782.389 74.6225 787.535 68.9171 794.217 65.4758C800.897 62.0344 809.023 60.3138 818.594 60.3138H827.261V91.8291H814.531C804.418 91.8291 796.293 94.9988 790.154 101.338C784.014 107.677 780.945 116.371 780.945 127.42V209.74H745.462V61.9439ZM888.951 175.779H900.598C909.266 175.779 916.127 173.334 921.183 168.444C926.42 163.372 929.038 156.671 929.038 148.339V7.33544H966.146V146.981C966.146 159.478 963.437 170.527 958.02 180.126C952.784 189.545 945.2 196.88 935.268 202.133C925.336 207.204 913.78 209.74 900.598 209.74H888.951V175.779ZM1053.79 213C1036.63 213 1023.09 207.476 1013.16 196.427C1003.23 185.378 998.264 170.708 998.264 152.415V61.9439H1033.75V149.426C1033.75 158.663 1036.46 166.18 1041.87 171.976C1047.47 177.591 1054.69 180.398 1063.54 180.398C1072.39 180.398 1079.52 177.5 1084.94 171.704C1090.54 165.909 1093.34 158.21 1093.34 148.611V61.9439H1128.82V209.74H1095.23V192.08C1091.26 198.963 1085.67 204.216 1078.44 207.838C1071.4 211.28 1063.18 213 1053.79 213ZM1217.05 212.728C1202.25 212.728 1189.16 209.196 1177.78 202.133C1166.59 195.069 1158.65 185.378 1153.94 173.063L1180.22 159.478C1184.19 167.447 1189.43 173.696 1195.93 178.225C1202.61 182.571 1209.92 184.745 1217.87 184.745C1224.74 184.745 1230.06 183.386 1233.85 180.67C1237.82 177.771 1239.81 173.878 1239.81 168.987C1239.81 164.822 1238.18 161.38 1234.93 158.663C1231.68 155.765 1227.44 153.863 1222.2 152.958L1198.09 148.883C1185.63 145.622 1175.98 140.099 1169.11 132.31C1162.44 124.341 1159.09 115.012 1159.09 104.327C1159.09 95.4515 1161.44 87.5727 1166.13 80.6901C1170.83 73.6263 1177.34 68.1926 1185.63 64.389C1194.13 60.5855 1203.7 58.6837 1214.35 58.6837C1227.89 58.6837 1239.81 61.9439 1250.1 68.4643C1260.39 74.8035 1267.89 83.6786 1272.58 95.0893L1246.31 108.673C1243.42 102.334 1238.99 97.2628 1233.03 93.4592C1227.08 89.6556 1220.49 87.7538 1213.26 87.7538C1207.3 87.7538 1202.52 89.1123 1198.91 91.8291C1195.48 94.5459 1193.76 98.0778 1193.76 102.425C1193.76 110.394 1199.72 115.737 1211.64 118.454L1235.2 122.801C1247.66 126.243 1257.33 131.857 1264.18 139.645C1271.05 147.434 1274.48 156.671 1274.48 167.357C1274.48 176.233 1272.04 184.111 1267.16 190.994C1262.47 197.876 1255.79 203.219 1247.12 207.023C1238.45 210.827 1228.43 212.728 1217.05 212.728ZM1368.11 211.37C1351.5 211.37 1338.58 206.841 1329.37 197.786C1320.35 188.548 1315.83 175.598 1315.83 158.935V93.7309H1290.37V61.9439H1293.08C1300.31 61.9439 1305.9 60.0421 1309.87 56.2385C1313.85 52.435 1315.83 46.9108 1315.83 39.6658V28.2551H1351.31V61.9439H1385.17V93.7309H1351.31V157.033C1351.31 172.429 1359.62 180.126 1376.23 180.126C1379.12 180.126 1382.28 179.855 1385.71 179.311V210.012C1379.94 210.917 1374.07 211.37 1368.11 211.37ZM1412.82 61.9439H1448.3V209.74H1412.82V61.9439ZM1410.11 21.1913C1410.11 14.6709 1411.92 9.59949 1415.53 5.97703C1419.14 2.35458 1424.11 0.543358 1430.43 0.543358C1436.93 0.543358 1441.99 2.35458 1445.59 5.97703C1449.2 9.59949 1451.01 14.6709 1451.01 21.1913C1451.01 27.5306 1449.2 32.5115 1445.59 36.1339C1442.16 39.7563 1437.11 41.5676 1430.43 41.5676C1424.11 41.5676 1419.14 39.7563 1415.53 36.1339C1411.92 32.5115 1410.11 27.5306 1410.11 21.1913ZM1481.07 61.9439H1514.38V80.1467C1518.17 73.2641 1523.68 68.0115 1530.9 64.389C1538.3 60.5855 1546.7 58.6837 1556.09 58.6837C1566.74 58.6837 1576.32 61.0383 1584.8 65.7475C1593.29 70.4566 1599.89 77.0676 1604.58 85.5804C1609.27 94.0931 1611.62 103.783 1611.62 114.651V209.74H1576.14V123.073C1576.14 113.474 1573.34 105.775 1567.74 99.9796C1562.32 94.1837 1555.19 91.2857 1546.34 91.2857C1537.49 91.2857 1530.27 94.1837 1524.67 99.9796C1519.26 105.775 1516.55 113.474 1516.55 123.073V209.74H1481.07V61.9439ZM1713.67 213C1699.41 213 1686.31 209.65 1674.39 202.948C1662.48 196.246 1653 187.009 1645.95 175.236C1639.09 163.463 1635.66 150.331 1635.66 135.842C1635.66 121.352 1639.09 108.221 1645.95 96.4477C1652.82 84.6748 1662.2 75.4375 1674.12 68.736C1686.04 62.0344 1699.23 58.6837 1713.67 58.6837C1727.94 58.6837 1740.94 62.0344 1752.67 68.736C1764.59 75.4375 1773.98 84.6748 1780.84 96.4477C1787.88 108.221 1791.4 121.352 1791.4 135.842C1791.4 150.513 1787.88 163.735 1780.84 175.508C1773.98 187.28 1764.59 196.518 1752.67 203.219C1740.75 209.74 1727.75 213 1713.67 213ZM1672.5 135.842C1672.5 148.701 1676.29 159.388 1683.87 167.901C1691.64 176.233 1701.58 180.398 1713.67 180.398C1721.44 180.398 1728.39 178.496 1734.52 174.693C1740.67 170.889 1745.46 165.637 1748.88 158.935C1752.5 152.053 1754.3 144.354 1754.3 135.842C1754.3 127.51 1752.5 119.994 1748.88 113.292C1745.46 106.409 1740.67 101.066 1734.52 97.2628C1728.39 93.278 1721.44 91.2857 1713.67 91.2857C1705.73 91.2857 1698.6 93.278 1692.27 97.2628C1686.14 101.066 1681.26 106.319 1677.64 113.02C1674.22 119.722 1672.5 127.329 1672.5 135.842Z" fill="#0D0D0C"/>
</g>
<defs>
<clipPath id="clip0_40_50">
<rect width="1792" height="213" fill="white"/>
</clipPath>
</defs>
</svg>
