<svg width="32" height="32" viewBox="0 0 32 32" fill="none" xmlns="http://www.w3.org/2000/svg">
<path d="M10.24 1.91998C5.65124 1.91998 1.92004 5.65118 1.92004 10.24V21.76C1.92004 26.3488 5.65124 30.08 10.24 30.08H21.76C26.3488 30.08 30.08 26.3488 30.08 21.76V10.24C30.08 5.65118 26.3488 1.91998 21.76 1.91998H10.24ZM23.68 7.03998C24.384 7.03998 24.96 7.61598 24.96 8.31998C24.96 9.02398 24.384 9.59998 23.68 9.59998C22.976 9.59998 22.4 9.02398 22.4 8.31998C22.4 7.61598 22.976 7.03998 23.68 7.03998ZM16 8.95998C19.8848 8.95998 23.04 12.1152 23.04 16C23.04 19.8848 19.8848 23.04 16 23.04C12.1152 23.04 8.96004 19.8848 8.96004 16C8.96004 12.1152 12.1152 8.95998 16 8.95998ZM16 10.24C12.8256 10.24 10.24 12.8256 10.24 16C10.24 19.1744 12.8256 21.76 16 21.76C19.1744 21.76 21.76 19.1744 21.76 16C21.76 12.8256 19.1744 10.24 16 10.24Z" fill="#0D0D0C"/>
</svg>
