<svg width="32" height="32" viewBox="0 0 32 32" fill="none" xmlns="http://www.w3.org/2000/svg">
<path d="M16 29.3334C14.1555 29.3334 12.4222 28.9834 10.8 28.2834C9.17774 27.5834 7.76663 26.6334 6.56663 25.4334C5.36663 24.2334 4.41663 22.8222 3.71663 21.2C3.01663 19.5778 2.66663 17.8445 2.66663 16C2.66663 14.1556 3.01663 12.4222 3.71663 10.8C4.41663 9.1778 5.36663 7.76669 6.56663 6.56669C7.76663 5.36669 9.17774 4.41669 10.8 3.71669C12.4222 3.01669 14.1555 2.66669 16 2.66669C17.8444 2.66669 19.5777 3.01669 21.2 3.71669C22.8222 4.41669 24.2333 5.36669 25.4333 6.56669C26.6333 7.76669 27.5833 9.1778 28.2833 10.8C28.9833 12.4222 29.3333 14.1556 29.3333 16V17.9334C29.3333 19.2445 28.8833 20.3611 27.9833 21.2834C27.0833 22.2056 25.9777 22.6667 24.6666 22.6667C23.8888 22.6667 23.1555 22.5 22.4666 22.1667C21.7777 21.8334 21.2 21.3556 20.7333 20.7334C20.0888 21.3778 19.3611 21.8611 18.55 22.1834C17.7388 22.5056 16.8888 22.6667 16 22.6667C14.1555 22.6667 12.5833 22.0167 11.2833 20.7167C9.98329 19.4167 9.33329 17.8445 9.33329 16C9.33329 14.1556 9.98329 12.5834 11.2833 11.2834C12.5833 9.98335 14.1555 9.33335 16 9.33335C17.8444 9.33335 19.4166 9.98335 20.7166 11.2834C22.0166 12.5834 22.6666 14.1556 22.6666 16V17.9334C22.6666 18.5111 22.8555 19 23.2333 19.4C23.6111 19.8 24.0888 20 24.6666 20C25.2444 20 25.7222 19.8 26.1 19.4C26.4777 19 26.6666 18.5111 26.6666 17.9334V16C26.6666 13.0222 25.6333 10.5 23.5666 8.43335C21.5 6.36669 18.9777 5.33335 16 5.33335C13.0222 5.33335 10.5 6.36669 8.43329 8.43335C6.36663 10.5 5.33329 13.0222 5.33329 16C5.33329 18.9778 6.36663 21.5 8.43329 23.5667C10.5 25.6334 13.0222 26.6667 16 26.6667H22.6666V29.3334H16ZM16 20C17.1111 20 18.0555 19.6111 18.8333 18.8334C19.6111 18.0556 20 17.1111 20 16C20 14.8889 19.6111 13.9445 18.8333 13.1667C18.0555 12.3889 17.1111 12 16 12C14.8888 12 13.9444 12.3889 13.1666 13.1667C12.3888 13.9445 12 14.8889 12 16C12 17.1111 12.3888 18.0556 13.1666 18.8334C13.9444 19.6111 14.8888 20 16 20Z" fill="#0D0D0C"/>
</svg>
